####
#
# OBJ File Generated by Meshlab
#
####
# Object xiao.obj
#
# Vertices: 159
# Faces: 288
#
####
vn 2.8822193 -1.0490423 3.7889135
v 0.0033559 -0.0012215 0.0400000
vn 3.0205965 -0.5326130 3.7889128
v 0.0035170 -0.0006201 0.0400000
vn 0.0000000 0.0000000 6.2831807
v 0.0000000 0.0000000 0.0400000
vn 0.0000000 0.0000000 2.9670603
v 0.0035713 0.0000000 0.0400000
vn 3.0205965 0.5326126 3.7889125
v 0.0035170 0.0006201 0.0400000
vn 1.9715543 -2.3496075 3.7889132
v 0.0022956 -0.0027358 0.0400000
vn 2.3496075 -1.9715544 3.7889132
v 0.0027358 -0.0022956 0.0400000
vn 2.6562684 -1.5335968 3.7889135
v 0.0030928 -0.0017856 0.0400000
vn 0.5326126 -3.0205965 3.7889125
v 0.0006201 -0.0035170 0.0400000
vn 1.0490426 -2.8822193 3.7889137
v 0.0012215 -0.0033559 0.0400000
vn 1.5335969 -2.6562681 3.7889135
v 0.0017856 -0.0030928 0.0400000
vn -1.0490423 -2.8822193 3.7889135
v -0.0012215 -0.0033559 0.0400000
vn -0.5326130 -3.0205965 3.7889128
v -0.0006201 -0.0035170 0.0400000
vn 0.0000000 0.0000000 2.9670603
v 0.0000000 -0.0035713 0.0400000
vn -2.3496075 -1.9715543 3.7889132
v -0.0027358 -0.0022956 0.0400000
vn -1.9715544 -2.3496075 3.7889132
v -0.0022956 -0.0027358 0.0400000
vn -1.5335968 -2.6562684 3.7889135
v -0.0017856 -0.0030928 0.0400000
vn -3.0205965 -0.5326126 3.7889125
v -0.0035170 -0.0006201 0.0400000
vn -2.8822193 -1.0490426 3.7889137
v -0.0033559 -0.0012215 0.0400000
vn -2.6562681 -1.5335969 3.7889135
v -0.0030928 -0.0017856 0.0400000
vn -2.8822193 1.0490423 3.7889135
v -0.0033559 0.0012215 0.0400000
vn -3.0205965 0.5326129 3.7889128
v -0.0035170 0.0006201 0.0400000
vn -3.0671940 -0.0000002 3.7889140
v -0.0035713 0.0000000 0.0400000
vn -1.9715543 2.3496075 3.7889132
v -0.0022956 0.0027358 0.0400000
vn -2.3496075 1.9715544 3.7889132
v -0.0027358 0.0022956 0.0400000
vn -2.6562684 1.5335968 3.7889135
v -0.0030928 0.0017856 0.0400000
vn -0.5326126 3.0205965 3.7889125
v -0.0006201 0.0035170 0.0400000
vn -1.0490426 2.8822193 3.7889137
v -0.0012215 0.0033559 0.0400000
vn -1.5335969 2.6562681 3.7889135
v -0.0017856 0.0030928 0.0400000
vn 1.0490423 2.8822193 3.7889135
v 0.0012215 0.0033559 0.0400000
vn 0.5326130 3.0205965 3.7889128
v 0.0006201 0.0035170 0.0400000
vn 0.0000000 0.0000000 2.9670603
v -0.0000000 0.0035713 0.0400000
vn 2.3496075 1.9715543 3.7889132
v 0.0027358 0.0022956 0.0400000
vn 1.9715544 2.3496075 3.7889132
v 0.0022956 0.0027358 0.0400000
vn 1.5335968 2.6562684 3.7889135
v 0.0017856 0.0030928 0.0400000
vn 2.8822193 1.0490426 3.7889137
v 0.0033559 0.0012215 0.0400000
vn 2.6562681 1.5335969 3.7889135
v 0.0030928 0.0017856 0.0400000
vn -2.9803400 -0.0000002 0.7985811
v -0.0040000 0.0000000 0.0384000
vn -6.0171556 1.0609879 0.7985810
v -0.0039392 0.0006946 0.0384000
vn -5.7415028 2.0897357 0.7985812
v -0.0037588 0.0013681 0.0384000
vn -5.2913980 3.0549898 0.7985811
v -0.0034641 0.0020000 0.0384000
vn -4.6805162 3.9274194 0.7985810
v -0.0030642 0.0025712 0.0384000
vn -3.9274197 4.6805162 0.7985811
v -0.0025712 0.0030642 0.0384000
vn -3.0549901 5.2913976 0.7985812
v -0.0020000 0.0034641 0.0384000
vn -2.0897360 5.7415028 0.7985811
v -0.0013681 0.0037588 0.0384000
vn -1.0609877 6.0171556 0.7985811
v -0.0006946 0.0039392 0.0384000
vn -0.0000002 3.0671940 0.8218537
v -0.0000000 0.0035713 0.0400000
vn -0.0000002 2.9803398 0.7985812
v -0.0000000 0.0040000 0.0384000
vn 1.0609879 6.0171556 0.7985810
v 0.0006946 0.0039392 0.0384000
vn 2.0897357 5.7415028 0.7985812
v 0.0013681 0.0037588 0.0384000
vn 3.0549898 5.2913980 0.7985811
v 0.0020000 0.0034641 0.0384000
vn 3.9274194 4.6805162 0.7985810
v 0.0025712 0.0030642 0.0384000
vn 4.6805162 3.9274197 0.7985811
v 0.0030642 0.0025712 0.0384000
vn 5.2913976 3.0549901 0.7985812
v 0.0034641 0.0020000 0.0384000
vn 5.7415028 2.0897360 0.7985811
v 0.0037588 0.0013681 0.0384000
vn 6.0171556 1.0609877 0.7985811
v 0.0039392 0.0006946 0.0384000
vn 3.0671940 0.0000002 0.8218537
v 0.0035713 0.0000000 0.0400000
vn 2.9803398 0.0000002 0.7985812
v 0.0040000 0.0000000 0.0384000
vn 6.0171556 -1.0609879 0.7985810
v 0.0039392 -0.0006946 0.0384000
vn 5.7415028 -2.0897357 0.7985812
v 0.0037588 -0.0013681 0.0384000
vn 5.2913980 -3.0549898 0.7985811
v 0.0034641 -0.0020000 0.0384000
vn 4.6805162 -3.9274194 0.7985810
v 0.0030642 -0.0025712 0.0384000
vn 3.9274197 -4.6805162 0.7985811
v 0.0025712 -0.0030642 0.0384000
vn 3.0549901 -5.2913976 0.7985812
v 0.0020000 -0.0034641 0.0384000
vn 2.0897360 -5.7415028 0.7985811
v 0.0013681 -0.0037588 0.0384000
vn 1.0609877 -6.0171556 0.7985811
v 0.0006946 -0.0039392 0.0384000
vn 0.0000002 -3.0671940 0.8218537
v 0.0000000 -0.0035713 0.0400000
vn 0.0000002 -2.9803398 0.7985812
v 0.0000000 -0.0040000 0.0384000
vn -1.0609879 -6.0171556 0.7985810
v -0.0006946 -0.0039392 0.0384000
vn -2.0897357 -5.7415028 0.7985812
v -0.0013681 -0.0037588 0.0384000
vn -3.0549898 -5.2913980 0.7985811
v -0.0020000 -0.0034641 0.0384000
vn -3.9274194 -4.6805162 0.7985810
v -0.0025712 -0.0030642 0.0384000
vn -4.6805162 -3.9274197 0.7985811
v -0.0030642 -0.0025712 0.0384000
vn -5.2913976 -3.0549901 0.7985812
v -0.0034641 -0.0020000 0.0384000
vn -5.7415028 -2.0897360 0.7985811
v -0.0037588 -0.0013681 0.0384000
vn -6.0171556 -1.0609877 0.7985811
v -0.0039392 -0.0006946 0.0384000
vn 3.1296394 0.0000001 0.0000000
v 0.0040000 0.0000000 0.0384000
vn 6.0171561 1.0609879 -0.7985810
v 0.0039392 0.0006946 0.0016000
vn 5.7415032 2.0897355 -0.7985812
v 0.0037588 0.0013681 0.0016000
vn 5.2913980 3.0549898 -0.7985811
v 0.0034641 0.0020000 0.0016000
vn 4.6805158 3.9274197 -0.7985810
v 0.0030642 0.0025712 0.0016000
vn 3.9274197 4.6805162 -0.7985811
v 0.0025712 0.0030642 0.0016000
vn 3.0549901 5.2913976 -0.7985812
v 0.0020000 0.0034641 0.0016000
vn 2.0897360 5.7415032 -0.7985811
v 0.0013681 0.0037588 0.0016000
vn 1.0609877 6.0171552 -0.7985811
v 0.0006946 0.0039392 0.0016000
vn 0.0000001 3.1296394 0.0000000
v 0.0000000 0.0040000 0.0016000
vn -0.0000001 3.1296394 0.0000000
v 0.0000000 0.0040000 0.0384000
vn -1.0609879 6.0171561 -0.7985810
v -0.0006946 0.0039392 0.0016000
vn -2.0897355 5.7415032 -0.7985812
v -0.0013681 0.0037588 0.0016000
vn -3.0549898 5.2913980 -0.7985811
v -0.0020000 0.0034641 0.0016000
vn -3.9274197 4.6805158 -0.7985810
v -0.0025712 0.0030642 0.0016000
vn -4.6805162 3.9274197 -0.7985811
v -0.0030642 0.0025712 0.0016000
vn -5.2913976 3.0549901 -0.7985812
v -0.0034641 0.0020000 0.0016000
vn -5.7415032 2.0897360 -0.7985811
v -0.0037588 0.0013681 0.0016000
vn -6.0171552 1.0609877 -0.7985811
v -0.0039392 0.0006946 0.0016000
vn -3.1296394 0.0000001 0.0000000
v -0.0040000 0.0000000 0.0016000
vn -3.1296394 -0.0000001 0.0000000
v -0.0040000 0.0000000 0.0384000
vn -6.0171561 -1.0609879 -0.7985810
v -0.0039392 -0.0006946 0.0016000
vn -5.7415032 -2.0897355 -0.7985812
v -0.0037588 -0.0013681 0.0016000
vn -5.2913980 -3.0549898 -0.7985811
v -0.0034641 -0.0020000 0.0016000
vn -4.6805158 -3.9274197 -0.7985810
v -0.0030642 -0.0025712 0.0016000
vn -3.9274197 -4.6805162 -0.7985811
v -0.0025712 -0.0030642 0.0016000
vn -3.0549901 -5.2913976 -0.7985812
v -0.0020000 -0.0034641 0.0016000
vn -2.0897360 -5.7415032 -0.7985811
v -0.0013681 -0.0037588 0.0016000
vn -1.0609877 -6.0171552 -0.7985811
v -0.0006946 -0.0039392 0.0016000
vn -0.0000001 -3.1296394 0.0000000
v -0.0000000 -0.0040000 0.0016000
vn 0.0000001 -3.1296394 0.0000000
v -0.0000000 -0.0040000 0.0384000
vn 1.0609879 -6.0171561 -0.7985810
v 0.0006946 -0.0039392 0.0016000
vn 2.0897355 -5.7415032 -0.7985812
v 0.0013681 -0.0037588 0.0016000
vn 3.0549898 -5.2913980 -0.7985811
v 0.0020000 -0.0034641 0.0016000
vn 3.9274197 -4.6805158 -0.7985810
v 0.0025712 -0.0030642 0.0016000
vn 4.6805162 -3.9274197 -0.7985811
v 0.0030642 -0.0025712 0.0016000
vn 5.2913976 -3.0549901 -0.7985812
v 0.0034641 -0.0020000 0.0016000
vn 5.7415032 -2.0897360 -0.7985811
v 0.0037588 -0.0013681 0.0016000
vn 6.0171552 -1.0609877 -0.7985811
v 0.0039392 -0.0006946 0.0016000
vn 6.1099796 -0.0000004 -0.7985811
v 0.0040000 0.0000000 0.0016000
vn 3.0205965 0.5326129 -3.7889128
v 0.0035170 0.0006201 0.0000000
vn 2.8822193 1.0490423 -3.7889137
v 0.0033559 0.0012215 0.0000000
vn 2.6562684 1.5335968 -3.7889135
v 0.0030928 0.0017856 0.0000000
vn 2.3496075 1.9715544 -3.7889128
v 0.0027358 0.0022956 0.0000000
vn 1.9715543 2.3496075 -3.7889128
v 0.0022956 0.0027358 0.0000000
vn 1.5335969 2.6562681 -3.7889132
v 0.0017856 0.0030928 0.0000000
vn 1.0490426 2.8822193 -3.7889137
v 0.0012215 0.0033559 0.0000000
vn 0.5326126 3.0205965 -3.7889125
v 0.0006201 0.0035170 0.0000000
vn 0.0000002 3.0671940 -0.8218537
v 0.0000000 0.0035713 0.0000000
vn 0.0000002 2.9803398 -0.7985812
v 0.0000000 0.0040000 0.0016000
vn -0.5326130 3.0205965 -3.7889128
v -0.0006201 0.0035170 0.0000000
vn -1.0490423 2.8822193 -3.7889137
v -0.0012215 0.0033559 0.0000000
vn -1.5335968 2.6562684 -3.7889135
v -0.0017856 0.0030928 0.0000000
vn -1.9715544 2.3496075 -3.7889128
v -0.0022956 0.0027358 0.0000000
vn -2.3496075 1.9715543 -3.7889128
v -0.0027358 0.0022956 0.0000000
vn -2.6562681 1.5335969 -3.7889132
v -0.0030928 0.0017856 0.0000000
vn -2.8822193 1.0490426 -3.7889137
v -0.0033559 0.0012215 0.0000000
vn -3.0205965 0.5326126 -3.7889125
v -0.0035170 0.0006201 0.0000000
vn -3.0671940 0.0000002 -0.8218537
v -0.0035713 0.0000000 0.0000000
vn -2.9803398 0.0000002 -0.7985812
v -0.0040000 0.0000000 0.0016000
vn -3.0205965 -0.5326130 -3.7889128
v -0.0035170 -0.0006201 0.0000000
vn -2.8822193 -1.0490423 -3.7889137
v -0.0033559 -0.0012215 0.0000000
vn -2.6562684 -1.5335968 -3.7889135
v -0.0030928 -0.0017856 0.0000000
vn -2.3496075 -1.9715544 -3.7889128
v -0.0027358 -0.0022956 0.0000000
vn -1.9715543 -2.3496075 -3.7889128
v -0.0022956 -0.0027358 0.0000000
vn -1.5335969 -2.6562681 -3.7889132
v -0.0017856 -0.0030928 0.0000000
vn -1.0490426 -2.8822193 -3.7889137
v -0.0012215 -0.0033559 0.0000000
vn -0.5326126 -3.0205965 -3.7889125
v -0.0006201 -0.0035170 0.0000000
vn -0.0000002 -3.0671940 -0.8218537
v -0.0000000 -0.0035713 0.0000000
vn -0.0000002 -2.9803398 -0.7985812
v -0.0000000 -0.0040000 0.0016000
vn 0.5326130 -3.0205965 -3.7889128
v 0.0006201 -0.0035170 0.0000000
vn 1.0490423 -2.8822193 -3.7889137
v 0.0012215 -0.0033559 0.0000000
vn 1.5335968 -2.6562684 -3.7889135
v 0.0017856 -0.0030928 0.0000000
vn 1.9715544 -2.3496075 -3.7889128
v 0.0022956 -0.0027358 0.0000000
vn 2.3496075 -1.9715543 -3.7889128
v 0.0027358 -0.0022956 0.0000000
vn 2.6562681 -1.5335969 -3.7889132
v 0.0030928 -0.0017856 0.0000000
vn 2.8822193 -1.0490426 -3.7889137
v 0.0033559 -0.0012215 0.0000000
vn 3.0205965 -0.5326126 -3.7889125
v 0.0035170 -0.0006201 0.0000000
vn 3.0671940 -0.0000002 -3.7889142
v 0.0035713 0.0000000 0.0000000
vn 0.0000000 0.0000000 -6.2831807
v 0.0000000 0.0000000 0.0000000
vn 0.0000000 0.0000000 -2.9670603
v 0.0000000 0.0035713 0.0000000
vn 0.0000000 0.0000000 -2.9670603
v -0.0035713 0.0000000 0.0000000
vn 0.0000000 0.0000000 -2.9670603
v -0.0000000 -0.0035713 0.0000000
# 159 vertices, 0 vertices normals

f 1//1 2//2 3//3
f 3//3 2//2 4//4
f 3//3 4//4 5//5
f 6//6 7//7 3//3
f 3//3 7//7 8//8
f 3//3 8//8 1//1
f 9//9 10//10 3//3
f 3//3 10//10 11//11
f 3//3 11//11 6//6
f 12//12 13//13 3//3
f 3//3 13//13 14//14
f 3//3 14//14 9//9
f 15//15 16//16 3//3
f 3//3 16//16 17//17
f 3//3 17//17 12//12
f 18//18 19//19 3//3
f 3//3 19//19 20//20
f 3//3 20//20 15//15
f 21//21 22//22 3//3
f 3//3 22//22 23//23
f 3//3 23//23 18//18
f 24//24 25//25 3//3
f 3//3 25//25 26//26
f 3//3 26//26 21//21
f 27//27 28//28 3//3
f 3//3 28//28 29//29
f 3//3 29//29 24//24
f 30//30 31//31 3//3
f 3//3 31//31 32//32
f 3//3 32//32 27//27
f 33//33 34//34 3//3
f 3//3 34//34 35//35
f 3//3 35//35 30//30
f 5//5 36//36 3//3
f 3//3 36//36 37//37
f 3//3 37//37 33//33
f 38//38 22//22 39//39
f 39//39 22//22 21//21
f 39//39 21//21 40//40
f 40//40 21//21 26//26
f 40//40 26//26 41//41
f 41//41 26//26 25//25
f 41//41 25//25 42//42
f 42//42 25//25 24//24
f 42//42 24//24 43//43
f 43//43 24//24 29//29
f 43//43 29//29 44//44
f 44//44 29//29 28//28
f 44//44 28//28 45//45
f 45//45 28//28 27//27
f 45//45 27//27 46//46
f 46//46 27//27 47//47
f 46//46 47//47 48//48
f 48//48 47//47 31//31
f 48//48 31//31 49//49
f 49//49 31//31 30//30
f 49//49 30//30 50//50
f 50//50 30//30 35//35
f 50//50 35//35 51//51
f 51//51 35//35 34//34
f 51//51 34//34 52//52
f 52//52 34//34 33//33
f 52//52 33//33 53//53
f 53//53 33//33 37//37
f 53//53 37//37 54//54
f 54//54 37//37 36//36
f 54//54 36//36 55//55
f 55//55 36//36 5//5
f 55//55 5//5 56//56
f 56//56 5//5 57//57
f 56//56 57//57 58//58
f 58//58 57//57 2//2
f 58//58 2//2 59//59
f 59//59 2//2 1//1
f 59//59 1//1 60//60
f 60//60 1//1 8//8
f 60//60 8//8 61//61
f 61//61 8//8 7//7
f 61//61 7//7 62//62
f 62//62 7//7 6//6
f 62//62 6//6 63//63
f 63//63 6//6 11//11
f 63//63 11//11 64//64
f 64//64 11//11 10//10
f 64//64 10//10 65//65
f 65//65 10//10 9//9
f 65//65 9//9 66//66
f 66//66 9//9 67//67
f 66//66 67//67 68//68
f 68//68 67//67 13//13
f 68//68 13//13 69//69
f 69//69 13//13 12//12
f 69//69 12//12 70//70
f 70//70 12//12 17//17
f 70//70 17//17 71//71
f 71//71 17//17 16//16
f 71//71 16//16 72//72
f 72//72 16//16 15//15
f 72//72 15//15 73//73
f 73//73 15//15 20//20
f 73//73 20//20 74//74
f 74//74 20//20 19//19
f 74//74 19//19 75//75
f 75//75 19//19 18//18
f 75//75 18//18 76//76
f 76//76 18//18 23//23
f 76//76 23//23 38//38
f 38//38 23//23 22//22
f 77//77 78//78 56//56
f 56//56 78//78 79//79
f 56//56 79//79 55//55
f 55//55 79//79 80//80
f 55//55 80//80 54//54
f 54//54 80//80 81//81
f 54//54 81//81 53//53
f 53//53 81//81 82//82
f 53//53 82//82 52//52
f 52//52 82//82 83//83
f 52//52 83//83 51//51
f 51//51 83//83 84//84
f 51//51 84//84 50//50
f 50//50 84//84 85//85
f 50//50 85//85 49//49
f 49//49 85//85 86//86
f 49//49 86//86 87//87
f 87//87 86//86 88//88
f 87//87 88//88 46//46
f 46//46 88//88 89//89
f 46//46 89//89 45//45
f 45//45 89//89 90//90
f 45//45 90//90 44//44
f 44//44 90//90 91//91
f 44//44 91//91 43//43
f 43//43 91//91 92//92
f 43//43 92//92 42//42
f 42//42 92//92 93//93
f 42//42 93//93 41//41
f 41//41 93//93 94//94
f 41//41 94//94 40//40
f 40//40 94//94 95//95
f 40//40 95//95 39//39
f 39//39 95//95 96//96
f 39//39 96//96 97//97
f 97//97 96//96 98//98
f 97//97 98//98 76//76
f 76//76 98//98 99//99
f 76//76 99//99 75//75
f 75//75 99//99 100//100
f 75//75 100//100 74//74
f 74//74 100//100 101//101
f 74//74 101//101 73//73
f 73//73 101//101 102//102
f 73//73 102//102 72//72
f 72//72 102//102 103//103
f 72//72 103//103 71//71
f 71//71 103//103 104//104
f 71//71 104//104 70//70
f 70//70 104//104 105//105
f 70//70 105//105 69//69
f 69//69 105//105 106//106
f 69//69 106//106 107//107
f 107//107 106//106 108//108
f 107//107 108//108 66//66
f 66//66 108//108 109//109
f 66//66 109//109 65//65
f 65//65 109//109 110//110
f 65//65 110//110 64//64
f 64//64 110//110 111//111
f 64//64 111//111 63//63
f 63//63 111//111 112//112
f 63//63 112//112 62//62
f 62//62 112//112 113//113
f 62//62 113//113 61//61
f 61//61 113//113 114//114
f 61//61 114//114 60//60
f 60//60 114//114 115//115
f 60//60 115//115 59//59
f 59//59 115//115 116//116
f 59//59 116//116 77//77
f 77//77 116//116 78//78
f 116//116 117//117 78//78
f 78//78 117//117 118//118
f 78//78 118//118 79//79
f 79//79 118//118 119//119
f 79//79 119//119 80//80
f 80//80 119//119 120//120
f 80//80 120//120 81//81
f 81//81 120//120 121//121
f 81//81 121//121 82//82
f 82//82 121//121 122//122
f 82//82 122//122 83//83
f 83//83 122//122 123//123
f 83//83 123//123 84//84
f 84//84 123//123 124//124
f 84//84 124//124 85//85
f 85//85 124//124 125//125
f 85//85 125//125 126//126
f 126//126 125//125 127//127
f 126//126 127//127 88//88
f 88//88 127//127 128//128
f 88//88 128//128 89//89
f 89//89 128//128 129//129
f 89//89 129//129 90//90
f 90//90 129//129 130//130
f 90//90 130//130 91//91
f 91//91 130//130 131//131
f 91//91 131//131 92//92
f 92//92 131//131 132//132
f 92//92 132//132 93//93
f 93//93 132//132 133//133
f 93//93 133//133 94//94
f 94//94 133//133 134//134
f 94//94 134//134 95//95
f 95//95 134//134 135//135
f 95//95 135//135 136//136
f 136//136 135//135 137//137
f 136//136 137//137 98//98
f 98//98 137//137 138//138
f 98//98 138//138 99//99
f 99//99 138//138 139//139
f 99//99 139//139 100//100
f 100//100 139//139 140//140
f 100//100 140//140 101//101
f 101//101 140//140 141//141
f 101//101 141//141 102//102
f 102//102 141//141 142//142
f 102//102 142//142 103//103
f 103//103 142//142 143//143
f 103//103 143//143 104//104
f 104//104 143//143 144//144
f 104//104 144//144 105//105
f 105//105 144//144 145//145
f 105//105 145//145 146//146
f 146//146 145//145 147//147
f 146//146 147//147 108//108
f 108//108 147//147 148//148
f 108//108 148//148 109//109
f 109//109 148//148 149//149
f 109//109 149//149 110//110
f 110//110 149//149 150//150
f 110//110 150//150 111//111
f 111//111 150//150 151//151
f 111//111 151//151 112//112
f 112//112 151//151 152//152
f 112//112 152//152 113//113
f 113//113 152//152 153//153
f 113//113 153//153 114//114
f 114//114 153//153 154//154
f 114//114 154//154 115//115
f 115//115 154//154 155//155
f 115//115 155//155 116//116
f 116//116 155//155 117//117
f 118//118 117//117 156//156
f 156//156 117//117 155//155
f 156//156 155//155 154//154
f 121//121 120//120 156//156
f 156//156 120//120 119//119
f 156//156 119//119 118//118
f 124//124 123//123 156//156
f 156//156 123//123 122//122
f 156//156 122//122 121//121
f 128//128 127//127 156//156
f 156//156 127//127 157//157
f 156//156 157//157 124//124
f 131//131 130//130 156//156
f 156//156 130//130 129//129
f 156//156 129//129 128//128
f 134//134 133//133 156//156
f 156//156 133//133 132//132
f 156//156 132//132 131//131
f 138//138 137//137 156//156
f 156//156 137//137 158//158
f 156//156 158//158 134//134
f 141//141 140//140 156//156
f 156//156 140//140 139//139
f 156//156 139//139 138//138
f 144//144 143//143 156//156
f 156//156 143//143 142//142
f 156//156 142//142 141//141
f 148//148 147//147 156//156
f 156//156 147//147 159//159
f 156//156 159//159 144//144
f 151//151 150//150 156//156
f 156//156 150//150 149//149
f 156//156 149//149 148//148
f 154//154 153//153 156//156
f 156//156 153//153 152//152
f 156//156 152//152 151//151
# 288 faces, 0 coords texture

# End of File
